<?xml version="1.0" standalone="no"?>
<!DOCTYPE svg PUBLIC "-//W3C//DTD SVG 20010904//EN"
 "http://www.w3.org/TR/2001/REC-SVG-20010904/DTD/svg10.dtd">
<svg version="1.0" xmlns="http://www.w3.org/2000/svg"
 width="‭181.8897637795276‬pt" height="50pt" viewBox="0 0 1848.000000 508.000000"
 preserveAspectRatio="xMidYMid meet">

<g transform="translate(0.000000,508.000000) scale(0.100000,-0.100000)"
fill="#000000" stroke="none">
<path d="M4302 5069 c-93 -16 -164 -65 -202 -139 -52 -102 -76 -324 -66 -620
8 -223 24 -329 61 -406 52 -105 139 -139 340 -132 138 6 188 21 236 75 42 49
69 129 83 251 l7 52 -106 0 -105 0 0 -40 c0 -96 -48 -140 -150 -140 -129 0
-157 61 -167 370 -7 209 9 403 37 467 29 66 105 90 201 63 51 -14 73 -43 79
-103 l5 -52 103 -3 103 -3 -6 48 c-28 218 -84 290 -242 313 -80 11 -138 11
-211 -1z"/>
<path d="M5220 5071 c-160 -30 -226 -115 -260 -336 -16 -102 -16 -541 -1 -652
14 -97 41 -180 72 -223 13 -17 48 -43 78 -57 48 -24 70 -28 176 -31 131 -5
224 11 274 47 15 11 39 42 54 70 45 83 58 170 64 456 8 366 -11 539 -70 626
-27 40 -76 75 -126 89 -51 14 -208 20 -261 11z m196 -211 c51 -43 69 -189 61
-505 -6 -253 -18 -314 -66 -357 -27 -24 -40 -28 -92 -28 -149 0 -172 60 -172
455 0 404 24 461 185 452 37 -3 75 -10 84 -17z"/>
<path d="M0 2560 l0 -2500 1750 0 1750 0 0 2500 0 2500 -1750 0 -1750 0 0
-2500z m1799 2005 c33 -114 124 -352 169 -440 39 -79 92 -154 157 -223 166
-178 399 -264 760 -279 l140 -6 -3 -66 c-6 -134 -44 -619 -87 -1101 -77 -864
-88 -975 -95 -983 -7 -8 -2219 -32 -2225 -25 -8 9 -122 1757 -132 2014 l-6
171 129 7 c289 17 515 81 684 196 77 52 189 174 227 246 34 63 158 390 209
547 20 61 31 83 35 70 4 -10 21 -67 38 -128z m-884 -3416 c52 -15 110 -74 124
-126 46 -171 -164 -296 -292 -175 -41 39 -57 74 -57 127 0 82 43 144 117 170
47 17 58 18 108 4z m427 1 c197 -55 160 -350 -43 -350 -200 0 -250 279 -62
345 47 17 58 18 105 5z m446 -5 c88 -37 131 -117 111 -206 -20 -86 -87 -139
-175 -139 -196 0 -243 279 -57 345 50 18 76 18 121 0z m414 5 c44 -13 93 -52
113 -91 23 -43 19 -127 -8 -173 -65 -114 -242 -113 -305 2 -56 101 -12 219 95
257 47 17 58 18 105 5z m469 -15 c83 -43 115 -164 65 -249 -46 -79 -152 -109
-236 -66 -108 55 -127 204 -37 288 54 51 140 62 208 27z m-2080 -500 c94 -49
118 -190 46 -272 -56 -64 -142 -81 -217 -43 -46 23 -74 60 -89 118 -39 143
124 267 260 197z m374 14 c63 -16 121 -80 131 -144 9 -62 -17 -127 -69 -168
-48 -39 -133 -48 -186 -20 -143 75 -128 277 24 331 40 14 48 14 100 1z m417 1
c113 -32 163 -163 103 -266 -87 -149 -324 -85 -325 89 0 85 40 145 117 172 47
17 58 18 105 5z m453 -16 c76 -36 112 -136 81 -219 -58 -152 -267 -154 -330
-3 -28 67 -16 127 35 183 60 65 132 78 214 39z m377 16 c41 -12 92 -50 110
-83 48 -90 15 -203 -72 -247 -68 -35 -149 -24 -203 28 -41 39 -57 74 -57 127
0 82 43 144 117 170 47 17 58 18 105 5z m419 -2 c80 -27 128 -91 129 -171 1
-144 -171 -229 -285 -142 -115 87 -85 262 51 310 48 18 62 18 105 3z m414 1
c52 -15 110 -74 124 -127 47 -171 -163 -295 -293 -174 -99 93 -59 263 72 302
38 12 52 11 97 -1z"/>
<path d="M5880 4425 l0 -625 100 0 100 0 0 225 c0 136 4 225 10 225 5 0 18
-28 28 -62 10 -35 41 -136 68 -226 l49 -163 65 3 64 3 53 185 c29 102 58 202
64 223 22 81 29 34 29 -188 l0 -225 100 0 100 0 0 625 0 625 -100 0 c-55 0
-100 -1 -100 -3 0 -11 -190 -730 -194 -734 -20 -20 -41 38 -124 333 -51 181
-97 346 -103 367 l-10 37 -99 0 -100 0 0 -625z"/>
<path d="M6920 4425 l0 -625 100 0 100 0 0 226 c0 163 3 225 11 222 7 -2 42
-103 78 -223 l67 -220 65 -3 65 -3 59 211 c32 116 64 219 71 228 11 14 13 -22
14 -210 l0 -228 100 0 100 0 0 625 0 625 -98 0 -99 0 -92 -356 c-105 -404 -99
-384 -116 -384 -16 0 -25 27 -115 350 -39 140 -80 285 -91 323 l-20 67 -99 0
-100 0 0 -625z"/>
<path d="M7953 4578 c6 -508 11 -564 60 -672 48 -105 141 -141 342 -134 139 5
190 22 242 81 76 86 93 234 93 795 l0 402 -100 0 -100 0 0 -387 c0 -504 -11
-612 -66 -664 -23 -21 -35 -24 -105 -24 -71 0 -81 2 -105 26 -51 51 -56 102
-61 597 l-5 452 -100 0 -100 0 5 -472z"/>
<path d="M8900 4425 l0 -625 100 0 100 0 0 372 c0 204 3 368 7 364 4 -4 78
-170 164 -369 l156 -362 102 -3 101 -3 0 626 0 625 -100 0 -100 0 0 -377 c0
-237 -4 -373 -9 -367 -6 5 -80 174 -166 377 l-157 367 -99 0 -99 0 0 -625z"/>
<path d="M9870 4425 l0 -625 100 0 100 0 0 625 0 625 -100 0 -100 0 0 -625z"/>
<path d="M10270 4960 l0 -90 118 0 c78 0 122 -4 130 -12 9 -9 12 -142 12 -535
l0 -523 100 0 100 0 0 523 c0 393 3 526 12 535 8 8 52 12 130 12 l118 0 0 90
0 90 -360 0 -360 0 0 -90z"/>
<path d="M11143 4788 c3 -199 9 -279 21 -328 32 -122 83 -180 186 -206 l45
-11 3 -222 2 -221 100 0 100 0 0 219 0 218 67 18 c160 43 203 169 203 598 l0
197 -100 0 -100 0 0 -173 c0 -288 -23 -399 -89 -427 -19 -7 -57 -11 -97 -8
-57 4 -70 8 -90 31 -40 47 -47 90 -51 340 l-5 237 -100 0 -100 0 5 -262z"/>
<path d="M12580 4960 l0 -90 118 0 c78 0 122 -4 130 -12 9 -9 12 -142 12 -535
l0 -523 100 0 100 0 0 523 c0 393 3 526 12 535 8 8 52 12 130 12 l118 0 0 90
0 90 -360 0 -360 0 0 -90z"/>
<path d="M13460 4425 l0 -625 110 0 110 0 2 223 3 222 135 0 135 0 3 -222 2
-223 100 0 100 0 0 625 0 625 -100 0 -100 0 -2 -297 -3 -298 -135 0 -135 0 -3
298 -2 297 -110 0 -110 0 0 -625z"/>
<path d="M14370 4425 l0 -625 305 0 306 0 -3 98 -3 97 -200 5 -200 5 0 120 0
120 165 5 165 5 3 98 3 97 -159 0 c-109 0 -162 4 -170 12 -8 8 -12 67 -12 200
0 175 1 188 19 198 12 6 96 10 205 10 l186 0 0 90 0 90 -305 0 -305 0 0 -625z"/>
<path d="M15170 4960 l0 -90 79 0 c53 0 82 -4 89 -13 8 -10 -18 -143 -103
-513 -63 -274 -117 -509 -120 -521 -5 -23 -4 -23 95 -23 95 0 100 1 105 23 3
12 16 76 30 141 14 66 28 123 31 128 9 14 312 10 321 -4 4 -7 21 -74 38 -148
l31 -135 102 -3 c62 -2 102 1 102 7 0 9 -252 1160 -266 1218 l-6 23 -264 0
-264 0 0 -90z m434 -423 c31 -137 56 -255 56 -263 0 -11 -25 -14 -126 -14
-115 0 -125 1 -120 18 8 24 116 509 116 518 0 4 4 4 9 -1 5 -6 34 -122 65
-258z"/>
<path d="M15950 4960 l0 -90 118 0 c78 0 122 -4 130 -12 9 -9 12 -142 12 -535
l0 -523 100 0 100 0 0 523 c0 393 3 526 12 535 8 8 52 12 130 12 l118 0 0 90
0 90 -360 0 -360 0 0 -90z"/>
<path d="M16800 4961 l0 -91 59 0 c98 0 91 44 91 -551 l0 -519 100 0 100 0 0
240 0 240 33 0 c32 0 33 -2 156 -240 l125 -240 103 0 104 0 -92 178 c-50 97
-107 205 -125 239 -39 70 -41 83 -16 83 35 0 119 49 154 89 19 22 42 64 52 92
23 73 31 200 17 288 -22 140 -72 214 -170 253 -53 21 -73 23 -373 26 l-318 3
0 -90z m592 -114 c61 -26 73 -55 73 -177 0 -164 -27 -189 -207 -198 l-108 -5
0 203 0 203 103 -5 c57 -3 118 -12 139 -21z"/>
<path d="M17870 4425 l0 -625 305 0 305 0 0 100 0 100 -193 0 c-137 0 -196 3
-205 12 -8 8 -12 48 -12 113 0 65 4 105 12 113 8 8 60 12 170 12 l158 0 0 100
0 100 -160 0 c-147 0 -160 1 -170 19 -6 12 -10 93 -10 194 0 156 2 176 18 190
16 15 46 17 205 17 l187 0 0 90 0 90 -305 0 -305 0 0 -625z"/>
<path d="M16275 3490 c-280 -25 -480 -104 -619 -244 -83 -83 -132 -170 -172
-301 -22 -75 -27 -116 -31 -245 -10 -302 57 -495 236 -683 102 -107 178 -167
431 -343 452 -314 516 -361 597 -437 61 -59 91 -96 115 -145 32 -65 33 -69 32
-197 -1 -158 -20 -220 -88 -283 -72 -67 -136 -85 -316 -90 -187 -5 -267 7
-341 51 -90 54 -129 158 -129 343 l0 94 -270 0 -270 0 0 -100 c0 -135 17 -286
46 -399 96 -382 358 -516 978 -498 206 6 295 19 416 58 347 115 519 358 537
759 13 316 -47 512 -221 717 -125 148 -213 217 -608 478 -509 337 -586 414
-596 601 -8 150 43 261 145 313 77 39 149 51 298 51 215 0 306 -31 360 -125
34 -57 53 -128 61 -232 l7 -83 263 0 264 0 0 59 c0 116 -22 317 -45 407 -73
288 -243 422 -590 463 -129 15 -385 21 -490 11z"/>
<path d="M4070 3190 l0 -240 311 0 c316 0 338 -2 366 -39 10 -12 12 -332 13
-1418 l0 -1403 265 0 265 0 0 1391 c0 1280 1 1393 17 1419 9 16 27 33 40 39
16 7 131 11 328 11 l305 0 0 240 0 240 -955 0 -955 0 0 -240z"/>
<path d="M6160 1760 l0 -1670 285 0 285 0 0 579 0 578 26 27 27 26 333 0 333
0 20 -26 c21 -26 21 -35 21 -605 l0 -579 260 0 260 0 0 1670 0 1670 -260 0
-260 0 0 -785 0 -786 -25 -24 -24 -25 -335 0 -335 0 -20 26 c-21 26 -21 33
-21 810 l0 784 -285 0 -285 0 0 -1670z"/>
<path d="M8330 1761 l0 -1671 255 0 255 0 0 626 c0 412 4 632 10 645 9 16 22
19 85 19 47 0 78 -5 86 -12 6 -7 158 -296 338 -643 l328 -630 277 -3 c152 -1
276 1 276 5 0 5 -153 302 -339 661 -337 649 -338 652 -312 658 97 22 154 39
213 64 237 101 371 292 425 610 20 116 22 473 4 600 -55 382 -205 585 -501
679 -159 50 -199 53 -817 58 l-583 5 0 -1671z m1080 1164 c245 -54 312 -165
313 -515 1 -283 -43 -394 -184 -466 -93 -46 -157 -56 -420 -61 l-246 -5 -17
23 c-14 21 -16 76 -16 516 0 490 0 493 21 514 21 21 26 22 248 16 152 -4 251
-11 301 -22z"/>
<path d="M11290 3418 c0 -7 184 -758 409 -1668 l408 -1655 275 -3 275 -2 37
142 c21 79 216 829 434 1668 l397 1525 -264 3 c-145 1 -266 1 -268 -1 -2 -2
-129 -487 -283 -1078 -154 -591 -285 -1086 -291 -1101 -15 -36 -36 -42 -53
-15 -7 12 -129 495 -270 1072 -142 578 -262 1067 -267 1088 l-10 37 -264 0
c-206 0 -265 -3 -265 -12z"/>
<path d="M13640 1760 l0 -1670 810 0 810 0 0 260 0 260 -505 0 c-369 0 -511 3
-530 12 -52 23 -55 44 -55 339 l0 271 34 34 34 34 421 0 421 0 0 260 0 260
-410 0 c-444 0 -448 0 -484 54 -14 23 -16 77 -16 514 0 481 0 490 21 516 45
57 35 56 574 56 l495 0 0 235 0 235 -810 0 -810 0 0 -1670z"/>
<path d="M17914 3406 c-17 -13 -19 -25 -16 -128 3 -124 79 -2184 85 -2287 5
-97 13 -101 203 -101 191 0 188 -2 197 126 3 49 25 601 49 1226 41 1110 42
1137 24 1157 -18 20 -29 21 -271 21 -202 0 -255 -3 -271 -14z"/>
<path d="M17927 612 c-15 -16 -17 -49 -17 -255 0 -232 0 -236 22 -251 19 -13
60 -16 250 -16 215 0 229 1 248 20 19 19 20 33 20 253 0 214 -2 235 -18 250
-16 15 -49 17 -254 17 -215 0 -236 -2 -251 -18z"/>
</g>
</svg>
